# xmcd
#
# Track frame offsets:
#	150
#	15202
#	31662
#	44700
#	56983
#	74478
#	88350
#	103068
#	116679
#	134016
#	147092
#	161082
#	177290
#	191826
#	205617
#	219540
#	245596
#
# Disc length: 3475 seconds
#
# Revision: 0
# Processed by: cddbd v1.5.2PL0 Copyright (c) Steve Scherf et al.
# Submitted via: EasyCDDAExtractor 9.0.0.1
#
DISCID=050d9111
DTITLE=Marco Brasil - As melhores do Marco Brasil
DYEAR=2006
DGENRE=Country
TTITLE0=Eu canto o que o povo quer
TTITLE1=Na boca do Brasil
TTITLE2=Goiás é mais
TTITLE3=Foi de Repente
TTITLE4=Barquinho
TTITLE5=Tapinha no bum bum
TTITLE6=La Cautiva
TTITLE7=Pau véio
TTITLE8=A loira do carro branco
TTITLE9=Agito do meu povo (remix)
TTITLE10=Eu só quero pescar
TTITLE11=Coração partido
TTITLE12=Coração no sufoco
TTITLE13=Gabriela
TTITLE14=Tchau amor
TTITLE15=Poema Bens Materiais
TTITLE16=Poema Filho Ingrato
EXTD=
EXTT0=
EXTT1=
EXTT2=
EXTT3=
EXTT4=
EXTT5=
EXTT6=
EXTT7=
EXTT8=
EXTT9=
EXTT10=
EXTT11=
EXTT12=
EXTT13=
EXTT14=
EXTT15=
EXTT16=
PLAYORDER=
